<svg id="Laag_2" data-name="Laag 2" xmlns="http://www.w3.org/2000/svg" viewBox="0 0 370.87 412.54"><title>Opleidings-SYMBOOL_Howest-Programmeren_BLAUW_Quadri</title><path d="M372.66,90.89,238,13.12a50.76,50.76,0,0,0-50.74,0L52.53,90.89a50.75,50.75,0,0,0-25.36,43.94V290.37A50.73,50.73,0,0,0,52.53,334.3l134.7,77.77a50.76,50.76,0,0,0,50.74,0L372.66,334.3A50.72,50.72,0,0,0,398,290.37V134.83A50.74,50.74,0,0,0,372.66,90.89Zm-208.1,51c-10.09,0-16.24,1.13-18.21,3.22s-2.93,6.08-3.16,12.17c-.51,16.68-.95,27.58-1.52,32.54a45.79,45.79,0,0,1-4.7,14.38c-2.41,4.5-6.88,9-13.46,13.06,6.22,3.83,10.74,8.33,13.59,13.62,2.77,5,4.57,12.65,5,22.56l1.59,30.26a10.12,10.12,0,0,0,4.61,6.78c2.19,1.4,7.61,2.21,16.13,2.21v25h-5.45c-11,0-19.67-1.29-25.81-3.69A24.52,24.52,0,0,1,120,301.54c-2.72-5.79-4-15.22-4-28.05,0-14.34-.61-23.37-1.63-27.28a26.18,26.18,0,0,0-5.58-11.09c-2.75-3.2-8.07-5-15.68-5.26V204.74c7.48,0,13.28-2.29,17.09-6.77q5.79-6.48,5.8-29.83c0-11.66.34-20.31,1.31-26.11a27.06,27.06,0,0,1,6.23-14.23,28.27,28.27,0,0,1,13-8.36c5.25-1.57,12.73-2.55,22.49-2.55h5.54Zm167.56,88c-7.73,0-13.33,2.21-17.2,6.79-3.77,4.38-5.68,14.43-5.68,29.81a212.26,212.26,0,0,1-1.34,26.22,27.43,27.43,0,0,1-6.26,14.3,29.56,29.56,0,0,1-13,8.38c-5.26,1.56-12.77,2.43-22.41,2.43h-5.66V292.68c9.85,0,15.73-1,18-3,2-1.95,3.34-6.08,3.34-12.4.43-17.76,1.18-29.3,1.94-34.29a47.14,47.14,0,0,1,5.24-14.25,33,33,0,0,1,12.33-11.36c-5.88-4-10.12-7.81-12.51-11.52a35.76,35.76,0,0,1-4.8-12.41c-.75-4.27-1.42-12.47-1.77-24.67-.43-11.8-1-18.75-1.56-20.5s-1.95-3.18-4-4.5-7.54-1.9-16.36-1.9v-25H266c11.28,0,19.77,1.32,25.88,3.86A23.44,23.44,0,0,1,305,133.26c2.77,5.7,4.27,15,4.27,28,0,14.69.42,24,1.57,27.88a27,27,0,0,0,5.79,10.37c2.75,3.24,7.79,4.84,15.52,5.19Z" transform="translate(-27.17 -6.33)" fill="#5bc5f2"/></svg>